solid OpenSCAD_Model
  facet normal 0.95105 0.309039 0
    outer loop
      vertex 13.6941 2.91076 1
      vertex 12.7896 5.69431 0
      vertex 12.7896 5.69431 1
    endloop
  endfacet
  facet normal 0.95105 0.309039 0
    outer loop
      vertex 12.7896 5.69431 0
      vertex 13.6941 2.91076 1
      vertex 13.6941 2.91076 0
    endloop
  endfacet
  facet normal 0.994523 0.104517 0
    outer loop
      vertex 14 0 1
      vertex 13.6941 2.91076 0
      vertex 13.6941 2.91076 1
    endloop
  endfacet
  facet normal 0.994523 0.104517 0
    outer loop
      vertex 13.6941 2.91076 0
      vertex 14 0 1
      vertex 14 0 0
    endloop
  endfacet
  facet normal 0.866025 0.5 0
    outer loop
      vertex 12.7896 5.69431 1
      vertex 11.3262 8.22899 0
      vertex 11.3262 8.22899 1
    endloop
  endfacet
  facet normal 0.866025 0.5 0
    outer loop
      vertex 11.3262 8.22899 0
      vertex 12.7896 5.69431 1
      vertex 12.7896 5.69431 0
    endloop
  endfacet
  facet normal 0.406727 0.91355 -0
    outer loop
      vertex 7 12.1244 0
      vertex 4.32624 13.3148 1
      vertex 7 12.1244 1
    endloop
  endfacet
  facet normal 0.406727 0.91355 0
    outer loop
      vertex 4.32624 13.3148 1
      vertex 7 12.1244 0
      vertex 4.32624 13.3148 0
    endloop
  endfacet
  facet normal 0.994523 -0.104517 0
    outer loop
      vertex 13.6941 -2.91076 1
      vertex 14 0 0
      vertex 14 0 1
    endloop
  endfacet
  facet normal 0.994523 -0.104517 0
    outer loop
      vertex 14 0 0
      vertex 13.6941 -2.91076 1
      vertex 13.6941 -2.91076 0
    endloop
  endfacet
  facet normal -0.95105 -0.309039 0
    outer loop
      vertex -12.7896 -5.69431 0
      vertex -13.6941 -2.91076 1
      vertex -13.6941 -2.91076 0
    endloop
  endfacet
  facet normal -0.95105 -0.309039 0
    outer loop
      vertex -13.6941 -2.91076 1
      vertex -12.7896 -5.69431 0
      vertex -12.7896 -5.69431 1
    endloop
  endfacet
  facet normal -0.95105 0.309039 0
    outer loop
      vertex -13.6941 2.91076 0
      vertex -12.7896 5.69431 1
      vertex -12.7896 5.69431 0
    endloop
  endfacet
  facet normal -0.95105 0.309039 0
    outer loop
      vertex -12.7896 5.69431 1
      vertex -13.6941 2.91076 0
      vertex -13.6941 2.91076 1
    endloop
  endfacet
  facet normal 0.587801 0.809005 -0
    outer loop
      vertex 9.36783 10.404 0
      vertex 7 12.1244 1
      vertex 9.36783 10.404 1
    endloop
  endfacet
  facet normal 0.587801 0.809005 0
    outer loop
      vertex 7 12.1244 1
      vertex 9.36783 10.404 0
      vertex 7 12.1244 0
    endloop
  endfacet
  facet normal -0.743148 -0.669127 0
    outer loop
      vertex -9.36783 -10.404 0
      vertex -11.3262 -8.22899 1
      vertex -11.3262 -8.22899 0
    endloop
  endfacet
  facet normal -0.743148 -0.669127 0
    outer loop
      vertex -11.3262 -8.22899 1
      vertex -9.36783 -10.404 0
      vertex -9.36783 -10.404 1
    endloop
  endfacet
  facet normal -0.994523 -0.104517 0
    outer loop
      vertex -13.6941 -2.91076 0
      vertex -14 0 1
      vertex -14 0 0
    endloop
  endfacet
  facet normal -0.994523 -0.104517 0
    outer loop
      vertex -14 0 1
      vertex -13.6941 -2.91076 0
      vertex -13.6941 -2.91076 1
    endloop
  endfacet
  facet normal 0.743148 -0.669127 0
    outer loop
      vertex 9.36783 -10.404 1
      vertex 11.3262 -8.22899 0
      vertex 11.3262 -8.22899 1
    endloop
  endfacet
  facet normal 0.743148 -0.669127 0
    outer loop
      vertex 11.3262 -8.22899 0
      vertex 9.36783 -10.404 1
      vertex 9.36783 -10.404 0
    endloop
  endfacet
  facet normal -0.866025 -0.5 0
    outer loop
      vertex -11.3262 -8.22899 0
      vertex -12.7896 -5.69431 1
      vertex -12.7896 -5.69431 0
    endloop
  endfacet
  facet normal -0.866025 -0.5 0
    outer loop
      vertex -12.7896 -5.69431 1
      vertex -11.3262 -8.22899 0
      vertex -11.3262 -8.22899 1
    endloop
  endfacet
  facet normal 0.95105 -0.309039 0
    outer loop
      vertex 12.7896 -5.69431 1
      vertex 13.6941 -2.91076 0
      vertex 13.6941 -2.91076 1
    endloop
  endfacet
  facet normal 0.95105 -0.309039 0
    outer loop
      vertex 13.6941 -2.91076 0
      vertex 12.7896 -5.69431 1
      vertex 12.7896 -5.69431 0
    endloop
  endfacet
  facet normal 0 1 -0
    outer loop
      vertex 1.4634 13.9233 0
      vertex -1.4634 13.9233 1
      vertex 1.4634 13.9233 1
    endloop
  endfacet
  facet normal 0 1 0
    outer loop
      vertex -1.4634 13.9233 1
      vertex 1.4634 13.9233 0
      vertex -1.4634 13.9233 0
    endloop
  endfacet
  facet normal -0.587801 0.809005 0
    outer loop
      vertex -7 12.1244 0
      vertex -9.36783 10.404 1
      vertex -7 12.1244 1
    endloop
  endfacet
  facet normal -0.587801 0.809005 0
    outer loop
      vertex -9.36783 10.404 1
      vertex -7 12.1244 0
      vertex -9.36783 10.404 0
    endloop
  endfacet
  facet normal 0.866025 -0.5 0
    outer loop
      vertex 11.3262 -8.22899 1
      vertex 12.7896 -5.69431 0
      vertex 12.7896 -5.69431 1
    endloop
  endfacet
  facet normal 0.866025 -0.5 0
    outer loop
      vertex 12.7896 -5.69431 0
      vertex 11.3262 -8.22899 1
      vertex 11.3262 -8.22899 0
    endloop
  endfacet
  facet normal -0.406727 0.91355 0
    outer loop
      vertex -4.32624 13.3148 0
      vertex -7 12.1244 1
      vertex -4.32624 13.3148 1
    endloop
  endfacet
  facet normal -0.406727 0.91355 0
    outer loop
      vertex -7 12.1244 1
      vertex -4.32624 13.3148 0
      vertex -7 12.1244 0
    endloop
  endfacet
  facet normal 0 0 1
    outer loop
      vertex 13.6941 2.91076 1
      vertex 13.6941 -2.91076 1
      vertex 14 0 1
    endloop
  endfacet
  facet normal 0 0 1
    outer loop
      vertex 12.7896 5.69431 1
      vertex 13.6941 -2.91076 1
      vertex 13.6941 2.91076 1
    endloop
  endfacet
  facet normal 0 0 1
    outer loop
      vertex 12.7896 5.69431 1
      vertex 12.7896 -5.69431 1
      vertex 13.6941 -2.91076 1
    endloop
  endfacet
  facet normal 0 0 1
    outer loop
      vertex 11.3262 8.22899 1
      vertex 12.7896 -5.69431 1
      vertex 12.7896 5.69431 1
    endloop
  endfacet
  facet normal 0 0 1
    outer loop
      vertex 11.3262 8.22899 1
      vertex 11.3262 -8.22899 1
      vertex 12.7896 -5.69431 1
    endloop
  endfacet
  facet normal 0 0 1
    outer loop
      vertex 9.36783 10.404 1
      vertex 11.3262 -8.22899 1
      vertex 11.3262 8.22899 1
    endloop
  endfacet
  facet normal 0 0 1
    outer loop
      vertex 9.36783 10.404 1
      vertex 9.36783 -10.404 1
      vertex 11.3262 -8.22899 1
    endloop
  endfacet
  facet normal 0 0 1
    outer loop
      vertex 7 12.1244 1
      vertex 9.36783 -10.404 1
      vertex 9.36783 10.404 1
    endloop
  endfacet
  facet normal 0 0 1
    outer loop
      vertex 7 12.1244 1
      vertex 7 -12.1244 1
      vertex 9.36783 -10.404 1
    endloop
  endfacet
  facet normal 0 0 1
    outer loop
      vertex 4.32624 13.3148 1
      vertex 7 -12.1244 1
      vertex 7 12.1244 1
    endloop
  endfacet
  facet normal 0 0 1
    outer loop
      vertex 4.32624 13.3148 1
      vertex 4.32624 -13.3148 1
      vertex 7 -12.1244 1
    endloop
  endfacet
  facet normal 0 0 1
    outer loop
      vertex 1.4634 13.9233 1
      vertex 4.32624 -13.3148 1
      vertex 4.32624 13.3148 1
    endloop
  endfacet
  facet normal 0 0 1
    outer loop
      vertex 1.4634 13.9233 1
      vertex 1.4634 -13.9233 1
      vertex 4.32624 -13.3148 1
    endloop
  endfacet
  facet normal -0 0 1
    outer loop
      vertex -1.4634 13.9233 1
      vertex 1.4634 -13.9233 1
      vertex 1.4634 13.9233 1
    endloop
  endfacet
  facet normal 0 0 1
    outer loop
      vertex -1.4634 13.9233 1
      vertex -1.4634 -13.9233 1
      vertex 1.4634 -13.9233 1
    endloop
  endfacet
  facet normal -0 0 1
    outer loop
      vertex -4.32624 13.3148 1
      vertex -1.4634 -13.9233 1
      vertex -1.4634 13.9233 1
    endloop
  endfacet
  facet normal 0 0 1
    outer loop
      vertex -4.32624 13.3148 1
      vertex -4.32624 -13.3148 1
      vertex -1.4634 -13.9233 1
    endloop
  endfacet
  facet normal -0 0 1
    outer loop
      vertex -7 12.1244 1
      vertex -4.32624 -13.3148 1
      vertex -4.32624 13.3148 1
    endloop
  endfacet
  facet normal 0 0 1
    outer loop
      vertex -7 12.1244 1
      vertex -7 -12.1244 1
      vertex -4.32624 -13.3148 1
    endloop
  endfacet
  facet normal -0 0 1
    outer loop
      vertex -9.36783 10.404 1
      vertex -7 -12.1244 1
      vertex -7 12.1244 1
    endloop
  endfacet
  facet normal 0 0 1
    outer loop
      vertex -9.36783 10.404 1
      vertex -9.36783 -10.404 1
      vertex -7 -12.1244 1
    endloop
  endfacet
  facet normal -0 0 1
    outer loop
      vertex -11.3262 8.22899 1
      vertex -9.36783 -10.404 1
      vertex -9.36783 10.404 1
    endloop
  endfacet
  facet normal 0 0 1
    outer loop
      vertex -11.3262 8.22899 1
      vertex -11.3262 -8.22899 1
      vertex -9.36783 -10.404 1
    endloop
  endfacet
  facet normal -0 0 1
    outer loop
      vertex -12.7896 5.69431 1
      vertex -11.3262 -8.22899 1
      vertex -11.3262 8.22899 1
    endloop
  endfacet
  facet normal 0 0 1
    outer loop
      vertex -12.7896 5.69431 1
      vertex -12.7896 -5.69431 1
      vertex -11.3262 -8.22899 1
    endloop
  endfacet
  facet normal -0 0 1
    outer loop
      vertex -13.6941 2.91076 1
      vertex -12.7896 -5.69431 1
      vertex -12.7896 5.69431 1
    endloop
  endfacet
  facet normal 0 0 1
    outer loop
      vertex -13.6941 2.91076 1
      vertex -13.6941 -2.91076 1
      vertex -12.7896 -5.69431 1
    endloop
  endfacet
  facet normal 0 -0 1
    outer loop
      vertex -13.6941 -2.91076 1
      vertex -13.6941 2.91076 1
      vertex -14 0 1
    endloop
  endfacet
  facet normal -0.994523 0.104517 0
    outer loop
      vertex -14 0 0
      vertex -13.6941 2.91076 1
      vertex -13.6941 2.91076 0
    endloop
  endfacet
  facet normal -0.994523 0.104517 0
    outer loop
      vertex -13.6941 2.91076 1
      vertex -14 0 0
      vertex -14 0 1
    endloop
  endfacet
  facet normal -0.743148 0.669127 0
    outer loop
      vertex -11.3262 8.22899 0
      vertex -9.36783 10.404 1
      vertex -9.36783 10.404 0
    endloop
  endfacet
  facet normal -0.743148 0.669127 0
    outer loop
      vertex -9.36783 10.404 1
      vertex -11.3262 8.22899 0
      vertex -11.3262 8.22899 1
    endloop
  endfacet
  facet normal 0.207907 0.978149 -0
    outer loop
      vertex 4.32624 13.3148 0
      vertex 1.4634 13.9233 1
      vertex 4.32624 13.3148 1
    endloop
  endfacet
  facet normal 0.207907 0.978149 0
    outer loop
      vertex 1.4634 13.9233 1
      vertex 4.32624 13.3148 0
      vertex 1.4634 13.9233 0
    endloop
  endfacet
  facet normal 0.743148 0.669127 0
    outer loop
      vertex 11.3262 8.22899 1
      vertex 9.36783 10.404 0
      vertex 9.36783 10.404 1
    endloop
  endfacet
  facet normal 0.743148 0.669127 0
    outer loop
      vertex 9.36783 10.404 0
      vertex 11.3262 8.22899 1
      vertex 11.3262 8.22899 0
    endloop
  endfacet
  facet normal -0.207907 0.978149 0
    outer loop
      vertex -1.4634 13.9233 0
      vertex -4.32624 13.3148 1
      vertex -1.4634 13.9233 1
    endloop
  endfacet
  facet normal -0.207907 0.978149 0
    outer loop
      vertex -4.32624 13.3148 1
      vertex -1.4634 13.9233 0
      vertex -4.32624 13.3148 0
    endloop
  endfacet
  facet normal -0.406727 -0.91355 0
    outer loop
      vertex -7 -12.1244 0
      vertex -4.32624 -13.3148 1
      vertex -7 -12.1244 1
    endloop
  endfacet
  facet normal -0.406727 -0.91355 -0
    outer loop
      vertex -4.32624 -13.3148 1
      vertex -7 -12.1244 0
      vertex -4.32624 -13.3148 0
    endloop
  endfacet
  facet normal -0.866025 0.5 0
    outer loop
      vertex -12.7896 5.69431 0
      vertex -11.3262 8.22899 1
      vertex -11.3262 8.22899 0
    endloop
  endfacet
  facet normal -0.866025 0.5 0
    outer loop
      vertex -11.3262 8.22899 1
      vertex -12.7896 5.69431 0
      vertex -12.7896 5.69431 1
    endloop
  endfacet
  facet normal 0 -1 0
    outer loop
      vertex -1.4634 -13.9233 0
      vertex 1.4634 -13.9233 1
      vertex -1.4634 -13.9233 1
    endloop
  endfacet
  facet normal 0 -1 -0
    outer loop
      vertex 1.4634 -13.9233 1
      vertex -1.4634 -13.9233 0
      vertex 1.4634 -13.9233 0
    endloop
  endfacet
  facet normal 0.587801 -0.809005 0
    outer loop
      vertex 7 -12.1244 0
      vertex 9.36783 -10.404 1
      vertex 7 -12.1244 1
    endloop
  endfacet
  facet normal 0.587801 -0.809005 0
    outer loop
      vertex 9.36783 -10.404 1
      vertex 7 -12.1244 0
      vertex 9.36783 -10.404 0
    endloop
  endfacet
  facet normal 0.207907 -0.978149 0
    outer loop
      vertex 1.4634 -13.9233 0
      vertex 4.32624 -13.3148 1
      vertex 1.4634 -13.9233 1
    endloop
  endfacet
  facet normal 0.207907 -0.978149 0
    outer loop
      vertex 4.32624 -13.3148 1
      vertex 1.4634 -13.9233 0
      vertex 4.32624 -13.3148 0
    endloop
  endfacet
  facet normal -0.207907 -0.978149 0
    outer loop
      vertex -4.32624 -13.3148 0
      vertex -1.4634 -13.9233 1
      vertex -4.32624 -13.3148 1
    endloop
  endfacet
  facet normal -0.207907 -0.978149 -0
    outer loop
      vertex -1.4634 -13.9233 1
      vertex -4.32624 -13.3148 0
      vertex -1.4634 -13.9233 0
    endloop
  endfacet
  facet normal 0.406727 -0.91355 0
    outer loop
      vertex 4.32624 -13.3148 0
      vertex 7 -12.1244 1
      vertex 4.32624 -13.3148 1
    endloop
  endfacet
  facet normal 0.406727 -0.91355 0
    outer loop
      vertex 7 -12.1244 1
      vertex 4.32624 -13.3148 0
      vertex 7 -12.1244 0
    endloop
  endfacet
  facet normal -0.587801 -0.809005 0
    outer loop
      vertex -9.36783 -10.404 0
      vertex -7 -12.1244 1
      vertex -9.36783 -10.404 1
    endloop
  endfacet
  facet normal -0.587801 -0.809005 -0
    outer loop
      vertex -7 -12.1244 1
      vertex -9.36783 -10.404 0
      vertex -7 -12.1244 0
    endloop
  endfacet
  facet normal 0 0 -1
    outer loop
      vertex 13.6941 -2.91076 0
      vertex 13.6941 2.91076 0
      vertex 14 0 0
    endloop
  endfacet
  facet normal 0 0 -1
    outer loop
      vertex 12.7896 -5.69431 0
      vertex 13.6941 2.91076 0
      vertex 13.6941 -2.91076 0
    endloop
  endfacet
  facet normal 0 0 -1
    outer loop
      vertex 12.7896 -5.69431 0
      vertex 12.7896 5.69431 0
      vertex 13.6941 2.91076 0
    endloop
  endfacet
  facet normal 0 0 -1
    outer loop
      vertex 11.3262 -8.22899 0
      vertex 12.7896 5.69431 0
      vertex 12.7896 -5.69431 0
    endloop
  endfacet
  facet normal 0 0 -1
    outer loop
      vertex 11.3262 -8.22899 0
      vertex 11.3262 8.22899 0
      vertex 12.7896 5.69431 0
    endloop
  endfacet
  facet normal 0 0 -1
    outer loop
      vertex 9.36783 -10.404 0
      vertex 11.3262 8.22899 0
      vertex 11.3262 -8.22899 0
    endloop
  endfacet
  facet normal 0 0 -1
    outer loop
      vertex 9.36783 -10.404 0
      vertex 9.36783 10.404 0
      vertex 11.3262 8.22899 0
    endloop
  endfacet
  facet normal 0 0 -1
    outer loop
      vertex 7 -12.1244 0
      vertex 9.36783 10.404 0
      vertex 9.36783 -10.404 0
    endloop
  endfacet
  facet normal 0 0 -1
    outer loop
      vertex 7 -12.1244 0
      vertex 7 12.1244 0
      vertex 9.36783 10.404 0
    endloop
  endfacet
  facet normal 0 0 -1
    outer loop
      vertex 4.32624 -13.3148 0
      vertex 7 12.1244 0
      vertex 7 -12.1244 0
    endloop
  endfacet
  facet normal 0 0 -1
    outer loop
      vertex 4.32624 -13.3148 0
      vertex 4.32624 13.3148 0
      vertex 7 12.1244 0
    endloop
  endfacet
  facet normal 0 0 -1
    outer loop
      vertex 1.4634 -13.9233 0
      vertex 4.32624 13.3148 0
      vertex 4.32624 -13.3148 0
    endloop
  endfacet
  facet normal 0 0 -1
    outer loop
      vertex 1.4634 -13.9233 0
      vertex 1.4634 13.9233 0
      vertex 4.32624 13.3148 0
    endloop
  endfacet
  facet normal 0 0 -1
    outer loop
      vertex -1.4634 -13.9233 0
      vertex 1.4634 13.9233 0
      vertex 1.4634 -13.9233 0
    endloop
  endfacet
  facet normal 0 0 -1
    outer loop
      vertex -1.4634 -13.9233 0
      vertex -1.4634 13.9233 0
      vertex 1.4634 13.9233 0
    endloop
  endfacet
  facet normal 0 0 -1
    outer loop
      vertex -4.32624 -13.3148 0
      vertex -1.4634 13.9233 0
      vertex -1.4634 -13.9233 0
    endloop
  endfacet
  facet normal 0 0 -1
    outer loop
      vertex -4.32624 -13.3148 0
      vertex -4.32624 13.3148 0
      vertex -1.4634 13.9233 0
    endloop
  endfacet
  facet normal 0 0 -1
    outer loop
      vertex -7 -12.1244 0
      vertex -4.32624 13.3148 0
      vertex -4.32624 -13.3148 0
    endloop
  endfacet
  facet normal 0 0 -1
    outer loop
      vertex -7 -12.1244 0
      vertex -7 12.1244 0
      vertex -4.32624 13.3148 0
    endloop
  endfacet
  facet normal 0 0 -1
    outer loop
      vertex -9.36783 -10.404 0
      vertex -7 12.1244 0
      vertex -7 -12.1244 0
    endloop
  endfacet
  facet normal 0 0 -1
    outer loop
      vertex -9.36783 -10.404 0
      vertex -9.36783 10.404 0
      vertex -7 12.1244 0
    endloop
  endfacet
  facet normal 0 0 -1
    outer loop
      vertex -11.3262 -8.22899 0
      vertex -9.36783 10.404 0
      vertex -9.36783 -10.404 0
    endloop
  endfacet
  facet normal 0 0 -1
    outer loop
      vertex -11.3262 -8.22899 0
      vertex -11.3262 8.22899 0
      vertex -9.36783 10.404 0
    endloop
  endfacet
  facet normal 0 0 -1
    outer loop
      vertex -12.7896 -5.69431 0
      vertex -11.3262 8.22899 0
      vertex -11.3262 -8.22899 0
    endloop
  endfacet
  facet normal 0 0 -1
    outer loop
      vertex -12.7896 -5.69431 0
      vertex -12.7896 5.69431 0
      vertex -11.3262 8.22899 0
    endloop
  endfacet
  facet normal 0 0 -1
    outer loop
      vertex -13.6941 -2.91076 0
      vertex -12.7896 5.69431 0
      vertex -12.7896 -5.69431 0
    endloop
  endfacet
  facet normal 0 0 -1
    outer loop
      vertex -13.6941 -2.91076 0
      vertex -13.6941 2.91076 0
      vertex -12.7896 5.69431 0
    endloop
  endfacet
  facet normal 0 -0 -1
    outer loop
      vertex -13.6941 2.91076 0
      vertex -13.6941 -2.91076 0
      vertex -14 0 0
    endloop
  endfacet
  facet normal 0.951059 0.309008 0
    outer loop
      vertex 14.6722 3.11868 4
      vertex 13.7032 6.10105 2
      vertex 13.7032 6.10105 4
    endloop
  endfacet
  facet normal 0.951059 0.309008 0
    outer loop
      vertex 13.7032 6.10105 2
      vertex 14.6722 3.11868 4
      vertex 14.6722 3.11868 2
    endloop
  endfacet
  facet normal 0.994521 0.104533 0
    outer loop
      vertex 15 0 4
      vertex 14.6722 3.11868 2
      vertex 14.6722 3.11868 4
    endloop
  endfacet
  facet normal 0.994521 0.104533 0
    outer loop
      vertex 14.6722 3.11868 2
      vertex 15 0 4
      vertex 15 0 2
    endloop
  endfacet
  facet normal 0.866029 0.499993 0
    outer loop
      vertex 13.7032 6.10105 4
      vertex 12.1353 8.81678 2
      vertex 12.1353 8.81678 4
    endloop
  endfacet
  facet normal 0.866029 0.499993 0
    outer loop
      vertex 12.1353 8.81678 2
      vertex 13.7032 6.10105 4
      vertex 13.7032 6.10105 2
    endloop
  endfacet
  facet normal 0.587777 0.809023 -0
    outer loop
      vertex 10.037 11.1472 2
      vertex 7.5 12.9904 4
      vertex 10.037 11.1472 4
    endloop
  endfacet
  facet normal 0.587777 0.809023 0
    outer loop
      vertex 7.5 12.9904 4
      vertex 10.037 11.1472 2
      vertex 7.5 12.9904 2
    endloop
  endfacet
  facet normal 0.951059 -0.309008 0
    outer loop
      vertex 13.7032 -6.10105 4
      vertex 14.6722 -3.11868 2
      vertex 14.6722 -3.11868 4
    endloop
  endfacet
  facet normal 0.951059 -0.309008 0
    outer loop
      vertex 14.6722 -3.11868 2
      vertex 13.7032 -6.10105 4
      vertex 13.7032 -6.10105 2
    endloop
  endfacet
  facet normal 0.994521 -0.104533 0
    outer loop
      vertex 14.6722 -3.11868 4
      vertex 15 0 2
      vertex 15 0 4
    endloop
  endfacet
  facet normal 0.994521 -0.104533 0
    outer loop
      vertex 15 0 2
      vertex 14.6722 -3.11868 4
      vertex 14.6722 -3.11868 2
    endloop
  endfacet
  facet normal 0.743148 0.669127 0
    outer loop
      vertex 12.1353 8.81678 4
      vertex 10.037 11.1472 2
      vertex 10.037 11.1472 4
    endloop
  endfacet
  facet normal 0.743148 0.669127 0
    outer loop
      vertex 10.037 11.1472 2
      vertex 12.1353 8.81678 4
      vertex 12.1353 8.81678 2
    endloop
  endfacet
  facet normal -0.951059 -0.309008 0
    outer loop
      vertex -13.7032 -6.10105 2
      vertex -14.6722 -3.11868 4
      vertex -14.6722 -3.11868 2
    endloop
  endfacet
  facet normal -0.951059 -0.309008 0
    outer loop
      vertex -14.6722 -3.11868 4
      vertex -13.7032 -6.10105 2
      vertex -13.7032 -6.10105 4
    endloop
  endfacet
  facet normal -0.951059 0.309008 0
    outer loop
      vertex -14.6722 3.11868 2
      vertex -13.7032 6.10105 4
      vertex -13.7032 6.10105 2
    endloop
  endfacet
  facet normal -0.951059 0.309008 0
    outer loop
      vertex -13.7032 6.10105 4
      vertex -14.6722 3.11868 2
      vertex -14.6722 3.11868 4
    endloop
  endfacet
  facet normal 0.587777 -0.809023 0
    outer loop
      vertex 7.5 -12.9904 2
      vertex 10.037 -11.1472 4
      vertex 7.5 -12.9904 4
    endloop
  endfacet
  facet normal 0.587777 -0.809023 0
    outer loop
      vertex 10.037 -11.1472 4
      vertex 7.5 -12.9904 2
      vertex 10.037 -11.1472 2
    endloop
  endfacet
  facet normal -0.587777 0.809023 0
    outer loop
      vertex -7.5 12.9904 2
      vertex -10.037 11.1472 4
      vertex -7.5 12.9904 4
    endloop
  endfacet
  facet normal -0.587777 0.809023 0
    outer loop
      vertex -10.037 11.1472 4
      vertex -7.5 12.9904 2
      vertex -10.037 11.1472 2
    endloop
  endfacet
  facet normal 0 0 1
    outer loop
      vertex 14.6722 3.11868 4
      vertex 14.6722 -3.11868 4
      vertex 15 0 4
    endloop
  endfacet
  facet normal 0 0 1
    outer loop
      vertex 13.7032 6.10105 4
      vertex 14.6722 -3.11868 4
      vertex 14.6722 3.11868 4
    endloop
  endfacet
  facet normal 0 0 1
    outer loop
      vertex 13.7032 6.10105 4
      vertex 13.7032 -6.10105 4
      vertex 14.6722 -3.11868 4
    endloop
  endfacet
  facet normal 0 0 1
    outer loop
      vertex 12.1353 8.81678 4
      vertex 13.7032 -6.10105 4
      vertex 13.7032 6.10105 4
    endloop
  endfacet
  facet normal 0 0 1
    outer loop
      vertex 12.1353 8.81678 4
      vertex 12.1353 -8.81678 4
      vertex 13.7032 -6.10105 4
    endloop
  endfacet
  facet normal 0 0 1
    outer loop
      vertex 10.037 11.1472 4
      vertex 12.1353 -8.81678 4
      vertex 12.1353 8.81678 4
    endloop
  endfacet
  facet normal 0 0 1
    outer loop
      vertex 10.037 11.1472 4
      vertex 10.037 -11.1472 4
      vertex 12.1353 -8.81678 4
    endloop
  endfacet
  facet normal 0 0 1
    outer loop
      vertex 7.5 12.9904 4
      vertex 10.037 -11.1472 4
      vertex 10.037 11.1472 4
    endloop
  endfacet
  facet normal 0 0 1
    outer loop
      vertex 7.5 12.9904 4
      vertex 7.5 -12.9904 4
      vertex 10.037 -11.1472 4
    endloop
  endfacet
  facet normal 0 0 1
    outer loop
      vertex 4.63525 14.2658 4
      vertex 7.5 -12.9904 4
      vertex 7.5 12.9904 4
    endloop
  endfacet
  facet normal 0 0 1
    outer loop
      vertex 4.63525 14.2658 4
      vertex 4.63525 -14.2658 4
      vertex 7.5 -12.9904 4
    endloop
  endfacet
  facet normal 0 0 1
    outer loop
      vertex 1.56793 14.9178 4
      vertex 4.63525 -14.2658 4
      vertex 4.63525 14.2658 4
    endloop
  endfacet
  facet normal 0 0 1
    outer loop
      vertex 1.56793 14.9178 4
      vertex 1.56793 -14.9178 4
      vertex 4.63525 -14.2658 4
    endloop
  endfacet
  facet normal -0 0 1
    outer loop
      vertex -1.56793 14.9178 4
      vertex 1.56793 -14.9178 4
      vertex 1.56793 14.9178 4
    endloop
  endfacet
  facet normal 0 0 1
    outer loop
      vertex -1.56793 14.9178 4
      vertex -1.56793 -14.9178 4
      vertex 1.56793 -14.9178 4
    endloop
  endfacet
  facet normal -0 0 1
    outer loop
      vertex -4.63525 14.2658 4
      vertex -1.56793 -14.9178 4
      vertex -1.56793 14.9178 4
    endloop
  endfacet
  facet normal 0 0 1
    outer loop
      vertex -4.63525 14.2658 4
      vertex -4.63525 -14.2658 4
      vertex -1.56793 -14.9178 4
    endloop
  endfacet
  facet normal -0 0 1
    outer loop
      vertex -7.5 12.9904 4
      vertex -4.63525 -14.2658 4
      vertex -4.63525 14.2658 4
    endloop
  endfacet
  facet normal 0 0 1
    outer loop
      vertex -7.5 12.9904 4
      vertex -7.5 -12.9904 4
      vertex -4.63525 -14.2658 4
    endloop
  endfacet
  facet normal -0 0 1
    outer loop
      vertex -10.037 11.1472 4
      vertex -7.5 -12.9904 4
      vertex -7.5 12.9904 4
    endloop
  endfacet
  facet normal 0 0 1
    outer loop
      vertex -10.037 11.1472 4
      vertex -10.037 -11.1472 4
      vertex -7.5 -12.9904 4
    endloop
  endfacet
  facet normal -0 0 1
    outer loop
      vertex -12.1353 8.81678 4
      vertex -10.037 -11.1472 4
      vertex -10.037 11.1472 4
    endloop
  endfacet
  facet normal 0 0 1
    outer loop
      vertex -12.1353 8.81678 4
      vertex -12.1353 -8.81678 4
      vertex -10.037 -11.1472 4
    endloop
  endfacet
  facet normal -0 0 1
    outer loop
      vertex -13.7032 6.10105 4
      vertex -12.1353 -8.81678 4
      vertex -12.1353 8.81678 4
    endloop
  endfacet
  facet normal 0 0 1
    outer loop
      vertex -13.7032 6.10105 4
      vertex -13.7032 -6.10105 4
      vertex -12.1353 -8.81678 4
    endloop
  endfacet
  facet normal -0 0 1
    outer loop
      vertex -14.6722 3.11868 4
      vertex -13.7032 -6.10105 4
      vertex -13.7032 6.10105 4
    endloop
  endfacet
  facet normal 0 0 1
    outer loop
      vertex -14.6722 3.11868 4
      vertex -14.6722 -3.11868 4
      vertex -13.7032 -6.10105 4
    endloop
  endfacet
  facet normal 0 -0 1
    outer loop
      vertex -14.6722 -3.11868 4
      vertex -14.6722 3.11868 4
      vertex -15 0 4
    endloop
  endfacet
  facet normal -0.866029 0.499993 0
    outer loop
      vertex -13.7032 6.10105 2
      vertex -12.1353 8.81678 4
      vertex -12.1353 8.81678 2
    endloop
  endfacet
  facet normal -0.866029 0.499993 0
    outer loop
      vertex -12.1353 8.81678 4
      vertex -13.7032 6.10105 2
      vertex -13.7032 6.10105 4
    endloop
  endfacet
  facet normal 0.866029 -0.499993 0
    outer loop
      vertex 12.1353 -8.81678 4
      vertex 13.7032 -6.10105 2
      vertex 13.7032 -6.10105 4
    endloop
  endfacet
  facet normal 0.866029 -0.499993 0
    outer loop
      vertex 13.7032 -6.10105 2
      vertex 12.1353 -8.81678 4
      vertex 12.1353 -8.81678 2
    endloop
  endfacet
  facet normal 0 1 -0
    outer loop
      vertex 1.56793 14.9178 2
      vertex -1.56793 14.9178 4
      vertex 1.56793 14.9178 4
    endloop
  endfacet
  facet normal 0 1 0
    outer loop
      vertex -1.56793 14.9178 4
      vertex 1.56793 14.9178 2
      vertex -1.56793 14.9178 2
    endloop
  endfacet
  facet normal -0.406718 0.913554 0
    outer loop
      vertex -4.63525 14.2658 2
      vertex -7.5 12.9904 4
      vertex -4.63525 14.2658 4
    endloop
  endfacet
  facet normal -0.406718 0.913554 0
    outer loop
      vertex -7.5 12.9904 4
      vertex -4.63525 14.2658 2
      vertex -7.5 12.9904 2
    endloop
  endfacet
  facet normal -0.207918 -0.978146 0
    outer loop
      vertex -4.63525 -14.2658 2
      vertex -1.56793 -14.9178 4
      vertex -4.63525 -14.2658 4
    endloop
  endfacet
  facet normal -0.207918 -0.978146 -0
    outer loop
      vertex -1.56793 -14.9178 4
      vertex -4.63525 -14.2658 2
      vertex -1.56793 -14.9178 2
    endloop
  endfacet
  facet normal 0 -1 0
    outer loop
      vertex -1.56793 -14.9178 2
      vertex 1.56793 -14.9178 4
      vertex -1.56793 -14.9178 4
    endloop
  endfacet
  facet normal 0 -1 -0
    outer loop
      vertex 1.56793 -14.9178 4
      vertex -1.56793 -14.9178 2
      vertex 1.56793 -14.9178 2
    endloop
  endfacet
  facet normal -0.406718 -0.913554 0
    outer loop
      vertex -7.5 -12.9904 2
      vertex -4.63525 -14.2658 4
      vertex -7.5 -12.9904 4
    endloop
  endfacet
  facet normal -0.406718 -0.913554 -0
    outer loop
      vertex -4.63525 -14.2658 4
      vertex -7.5 -12.9904 2
      vertex -4.63525 -14.2658 2
    endloop
  endfacet
  facet normal -0.207918 0.978146 0
    outer loop
      vertex -1.56793 14.9178 2
      vertex -4.63525 14.2658 4
      vertex -1.56793 14.9178 4
    endloop
  endfacet
  facet normal -0.207918 0.978146 0
    outer loop
      vertex -4.63525 14.2658 4
      vertex -1.56793 14.9178 2
      vertex -4.63525 14.2658 2
    endloop
  endfacet
  facet normal 0.207918 -0.978146 0
    outer loop
      vertex 1.56793 -14.9178 2
      vertex 4.63525 -14.2658 4
      vertex 1.56793 -14.9178 4
    endloop
  endfacet
  facet normal 0.207918 -0.978146 0
    outer loop
      vertex 4.63525 -14.2658 4
      vertex 1.56793 -14.9178 2
      vertex 4.63525 -14.2658 2
    endloop
  endfacet
  facet normal 0.743148 -0.669127 0
    outer loop
      vertex 10.037 -11.1472 4
      vertex 12.1353 -8.81678 2
      vertex 12.1353 -8.81678 4
    endloop
  endfacet
  facet normal 0.743148 -0.669127 0
    outer loop
      vertex 12.1353 -8.81678 2
      vertex 10.037 -11.1472 4
      vertex 10.037 -11.1472 2
    endloop
  endfacet
  facet normal 0.406718 -0.913554 0
    outer loop
      vertex 4.63525 -14.2658 2
      vertex 7.5 -12.9904 4
      vertex 4.63525 -14.2658 4
    endloop
  endfacet
  facet normal 0.406718 -0.913554 0
    outer loop
      vertex 7.5 -12.9904 4
      vertex 4.63525 -14.2658 2
      vertex 7.5 -12.9904 2
    endloop
  endfacet
  facet normal -0.587777 -0.809023 0
    outer loop
      vertex -10.037 -11.1472 2
      vertex -7.5 -12.9904 4
      vertex -10.037 -11.1472 4
    endloop
  endfacet
  facet normal -0.587777 -0.809023 -0
    outer loop
      vertex -7.5 -12.9904 4
      vertex -10.037 -11.1472 2
      vertex -7.5 -12.9904 2
    endloop
  endfacet
  facet normal -0.994521 0.104533 0
    outer loop
      vertex -15 0 2
      vertex -14.6722 3.11868 4
      vertex -14.6722 3.11868 2
    endloop
  endfacet
  facet normal -0.994521 0.104533 0
    outer loop
      vertex -14.6722 3.11868 4
      vertex -15 0 2
      vertex -15 0 4
    endloop
  endfacet
  facet normal 0.207918 0.978146 -0
    outer loop
      vertex 4.63525 14.2658 2
      vertex 1.56793 14.9178 4
      vertex 4.63525 14.2658 4
    endloop
  endfacet
  facet normal 0.207918 0.978146 0
    outer loop
      vertex 1.56793 14.9178 4
      vertex 4.63525 14.2658 2
      vertex 1.56793 14.9178 2
    endloop
  endfacet
  facet normal -0.866029 -0.499993 0
    outer loop
      vertex -12.1353 -8.81678 2
      vertex -13.7032 -6.10105 4
      vertex -13.7032 -6.10105 2
    endloop
  endfacet
  facet normal -0.866029 -0.499993 0
    outer loop
      vertex -13.7032 -6.10105 4
      vertex -12.1353 -8.81678 2
      vertex -12.1353 -8.81678 4
    endloop
  endfacet
  facet normal 0.406718 0.913554 -0
    outer loop
      vertex 7.5 12.9904 2
      vertex 4.63525 14.2658 4
      vertex 7.5 12.9904 4
    endloop
  endfacet
  facet normal 0.406718 0.913554 0
    outer loop
      vertex 4.63525 14.2658 4
      vertex 7.5 12.9904 2
      vertex 4.63525 14.2658 2
    endloop
  endfacet
  facet normal -0.994521 -0.104533 0
    outer loop
      vertex -14.6722 -3.11868 2
      vertex -15 0 4
      vertex -15 0 2
    endloop
  endfacet
  facet normal -0.994521 -0.104533 0
    outer loop
      vertex -15 0 4
      vertex -14.6722 -3.11868 2
      vertex -14.6722 -3.11868 4
    endloop
  endfacet
  facet normal -0.743148 -0.669127 0
    outer loop
      vertex -10.037 -11.1472 2
      vertex -12.1353 -8.81678 4
      vertex -12.1353 -8.81678 2
    endloop
  endfacet
  facet normal -0.743148 -0.669127 0
    outer loop
      vertex -12.1353 -8.81678 4
      vertex -10.037 -11.1472 2
      vertex -10.037 -11.1472 4
    endloop
  endfacet
  facet normal 0 0 -1
    outer loop
      vertex 14.6722 -3.11868 2
      vertex 14.6722 3.11868 2
      vertex 15 0 2
    endloop
  endfacet
  facet normal 0 0 -1
    outer loop
      vertex 13.7032 -6.10105 2
      vertex 14.6722 3.11868 2
      vertex 14.6722 -3.11868 2
    endloop
  endfacet
  facet normal 0 0 -1
    outer loop
      vertex 13.7032 -6.10105 2
      vertex 13.7032 6.10105 2
      vertex 14.6722 3.11868 2
    endloop
  endfacet
  facet normal 0 0 -1
    outer loop
      vertex 12.1353 -8.81678 2
      vertex 13.7032 6.10105 2
      vertex 13.7032 -6.10105 2
    endloop
  endfacet
  facet normal 0 0 -1
    outer loop
      vertex 12.1353 -8.81678 2
      vertex 12.1353 8.81678 2
      vertex 13.7032 6.10105 2
    endloop
  endfacet
  facet normal 0 0 -1
    outer loop
      vertex 10.037 -11.1472 2
      vertex 12.1353 8.81678 2
      vertex 12.1353 -8.81678 2
    endloop
  endfacet
  facet normal 0 0 -1
    outer loop
      vertex 10.037 -11.1472 2
      vertex 10.037 11.1472 2
      vertex 12.1353 8.81678 2
    endloop
  endfacet
  facet normal 0 0 -1
    outer loop
      vertex 7.5 -12.9904 2
      vertex 10.037 11.1472 2
      vertex 10.037 -11.1472 2
    endloop
  endfacet
  facet normal 0 0 -1
    outer loop
      vertex 7.5 -12.9904 2
      vertex 7.5 12.9904 2
      vertex 10.037 11.1472 2
    endloop
  endfacet
  facet normal 0 0 -1
    outer loop
      vertex 4.63525 -14.2658 2
      vertex 7.5 12.9904 2
      vertex 7.5 -12.9904 2
    endloop
  endfacet
  facet normal 0 0 -1
    outer loop
      vertex 4.63525 -14.2658 2
      vertex 4.63525 14.2658 2
      vertex 7.5 12.9904 2
    endloop
  endfacet
  facet normal 0 0 -1
    outer loop
      vertex 1.56793 -14.9178 2
      vertex 4.63525 14.2658 2
      vertex 4.63525 -14.2658 2
    endloop
  endfacet
  facet normal 0 0 -1
    outer loop
      vertex 1.56793 -14.9178 2
      vertex 1.56793 14.9178 2
      vertex 4.63525 14.2658 2
    endloop
  endfacet
  facet normal 0 0 -1
    outer loop
      vertex -1.56793 -14.9178 2
      vertex 1.56793 14.9178 2
      vertex 1.56793 -14.9178 2
    endloop
  endfacet
  facet normal 0 0 -1
    outer loop
      vertex -1.56793 -14.9178 2
      vertex -1.56793 14.9178 2
      vertex 1.56793 14.9178 2
    endloop
  endfacet
  facet normal 0 0 -1
    outer loop
      vertex -4.63525 -14.2658 2
      vertex -1.56793 14.9178 2
      vertex -1.56793 -14.9178 2
    endloop
  endfacet
  facet normal 0 0 -1
    outer loop
      vertex -4.63525 -14.2658 2
      vertex -4.63525 14.2658 2
      vertex -1.56793 14.9178 2
    endloop
  endfacet
  facet normal 0 0 -1
    outer loop
      vertex -7.5 -12.9904 2
      vertex -4.63525 14.2658 2
      vertex -4.63525 -14.2658 2
    endloop
  endfacet
  facet normal 0 0 -1
    outer loop
      vertex -7.5 -12.9904 2
      vertex -7.5 12.9904 2
      vertex -4.63525 14.2658 2
    endloop
  endfacet
  facet normal 0 0 -1
    outer loop
      vertex -10.037 -11.1472 2
      vertex -7.5 12.9904 2
      vertex -7.5 -12.9904 2
    endloop
  endfacet
  facet normal 0 0 -1
    outer loop
      vertex -10.037 -11.1472 2
      vertex -10.037 11.1472 2
      vertex -7.5 12.9904 2
    endloop
  endfacet
  facet normal 0 0 -1
    outer loop
      vertex -12.1353 -8.81678 2
      vertex -10.037 11.1472 2
      vertex -10.037 -11.1472 2
    endloop
  endfacet
  facet normal 0 0 -1
    outer loop
      vertex -12.1353 -8.81678 2
      vertex -12.1353 8.81678 2
      vertex -10.037 11.1472 2
    endloop
  endfacet
  facet normal 0 0 -1
    outer loop
      vertex -13.7032 -6.10105 2
      vertex -12.1353 8.81678 2
      vertex -12.1353 -8.81678 2
    endloop
  endfacet
  facet normal 0 0 -1
    outer loop
      vertex -13.7032 -6.10105 2
      vertex -13.7032 6.10105 2
      vertex -12.1353 8.81678 2
    endloop
  endfacet
  facet normal 0 0 -1
    outer loop
      vertex -14.6722 -3.11868 2
      vertex -13.7032 6.10105 2
      vertex -13.7032 -6.10105 2
    endloop
  endfacet
  facet normal 0 0 -1
    outer loop
      vertex -14.6722 -3.11868 2
      vertex -14.6722 3.11868 2
      vertex -13.7032 6.10105 2
    endloop
  endfacet
  facet normal 0 -0 -1
    outer loop
      vertex -14.6722 3.11868 2
      vertex -14.6722 -3.11868 2
      vertex -15 0 2
    endloop
  endfacet
  facet normal -0.743148 0.669127 0
    outer loop
      vertex -12.1353 8.81678 2
      vertex -10.037 11.1472 4
      vertex -10.037 11.1472 2
    endloop
  endfacet
  facet normal -0.743148 0.669127 0
    outer loop
      vertex -10.037 11.1472 4
      vertex -12.1353 8.81678 2
      vertex -12.1353 8.81678 4
    endloop
  endfacet
endsolid OpenSCAD_Model
