solid OpenSCAD_Model
  facet normal 0 0 -1
    outer loop
      vertex 3 2 0
      vertex -2.7 5.79999 0
      vertex 2.7 5.79999 0
    endloop
  endfacet
  facet normal 0 0 -1
    outer loop
      vertex -3 2 0
      vertex 3 2 0
      vertex 5 0 0
    endloop
  endfacet
  facet normal 0 0 -1
    outer loop
      vertex 3 2 0
      vertex -3 2 0
      vertex -2.7 5.79999 0
    endloop
  endfacet
  facet normal 0 -0 -1
    outer loop
      vertex -3 2 0
      vertex 5 0 0
      vertex -5 0 0
    endloop
  endfacet
  facet normal 0 0 -1
    outer loop
      vertex 3 2 0
      vertex 6.2 2.5 0
      vertex 6.2 2 0
    endloop
  endfacet
  facet normal -0 0 -1
    outer loop
      vertex 6.2 2.5 0
      vertex 3 2 0
      vertex 2.7 5.79999 0
    endloop
  endfacet
  facet normal 0 0 -1
    outer loop
      vertex -6.2 2.5 0
      vertex -3 2 0
      vertex -6.2 2 0
    endloop
  endfacet
  facet normal 0 0 -1
    outer loop
      vertex -3 2 0
      vertex -6.2 2.5 0
      vertex -2.7 5.79999 0
    endloop
  endfacet
  facet normal 0 0 1
    outer loop
      vertex 6.2 2.5 10
      vertex 3 2 10
      vertex 6.2 2 10
    endloop
  endfacet
  facet normal 0 -0 1
    outer loop
      vertex 3 2 10
      vertex 6.2 2.5 10
      vertex 2.7 5.79999 10
    endloop
  endfacet
  facet normal -0 0 1
    outer loop
      vertex -2.7 5.79999 10
      vertex 3 2 10
      vertex 2.7 5.79999 10
    endloop
  endfacet
  facet normal 0 0 1
    outer loop
      vertex -3 2 10
      vertex 3 2 10
      vertex -2.7 5.79999 10
    endloop
  endfacet
  facet normal 0 0 1
    outer loop
      vertex 3 2 10
      vertex -3 2 10
      vertex 5 0 10
    endloop
  endfacet
  facet normal 0 0 1
    outer loop
      vertex 5 0 10
      vertex -3 2 10
      vertex -5 0 10
    endloop
  endfacet
  facet normal -0 0 1
    outer loop
      vertex -6.2 2.5 10
      vertex -3 2 10
      vertex -2.7 5.79999 10
    endloop
  endfacet
  facet normal 0 0 1
    outer loop
      vertex -3 2 10
      vertex -6.2 2.5 10
      vertex -6.2 2 10
    endloop
  endfacet
  facet normal -1 0 0
    outer loop
      vertex -6.2 2 0
      vertex -6.2 2.5 10
      vertex -6.2 2.5 0
    endloop
  endfacet
  facet normal -1 -0 0
    outer loop
      vertex -6.2 2.5 10
      vertex -6.2 2 0
      vertex -6.2 2 10
    endloop
  endfacet
  facet normal 0 -1 0
    outer loop
      vertex -6.2 2 0
      vertex -3 2 10
      vertex -6.2 2 10
    endloop
  endfacet
  facet normal 0 -1 -0
    outer loop
      vertex -3 2 10
      vertex -6.2 2 0
      vertex -3 2 0
    endloop
  endfacet
  facet normal -0.707107 0.707107 0
    outer loop
      vertex -5 0 0
      vertex -3 2 10
      vertex -3 2 0
    endloop
  endfacet
  facet normal -0.707107 0.707107 0
    outer loop
      vertex -3 2 10
      vertex -5 0 0
      vertex -5 0 10
    endloop
  endfacet
  facet normal 0 -1 0
    outer loop
      vertex -5 0 0
      vertex 5 0 10
      vertex -5 0 10
    endloop
  endfacet
  facet normal 0 -1 -0
    outer loop
      vertex 5 0 10
      vertex -5 0 0
      vertex 5 0 0
    endloop
  endfacet
  facet normal 0.707107 0.707107 0
    outer loop
      vertex 5 0 10
      vertex 3 2 0
      vertex 3 2 10
    endloop
  endfacet
  facet normal 0.707107 0.707107 0
    outer loop
      vertex 3 2 0
      vertex 5 0 10
      vertex 5 0 0
    endloop
  endfacet
  facet normal 0 -1 0
    outer loop
      vertex 3 2 0
      vertex 6.2 2 10
      vertex 3 2 10
    endloop
  endfacet
  facet normal 0 -1 -0
    outer loop
      vertex 6.2 2 10
      vertex 3 2 0
      vertex 6.2 2 0
    endloop
  endfacet
  facet normal 1 -0 0
    outer loop
      vertex 6.2 2 10
      vertex 6.2 2.5 0
      vertex 6.2 2.5 10
    endloop
  endfacet
  facet normal 1 0 0
    outer loop
      vertex 6.2 2.5 0
      vertex 6.2 2 10
      vertex 6.2 2 0
    endloop
  endfacet
  facet normal 0.686012 0.72759 -0
    outer loop
      vertex 6.2 2.5 0
      vertex 2.7 5.79999 10
      vertex 6.2 2.5 10
    endloop
  endfacet
  facet normal 0.686012 0.72759 0
    outer loop
      vertex 2.7 5.79999 10
      vertex 6.2 2.5 0
      vertex 2.7 5.79999 0
    endloop
  endfacet
  facet normal 0 1 -0
    outer loop
      vertex 2.7 5.79999 0
      vertex -2.7 5.79999 10
      vertex 2.7 5.79999 10
    endloop
  endfacet
  facet normal 0 1 0
    outer loop
      vertex -2.7 5.79999 10
      vertex 2.7 5.79999 0
      vertex -2.7 5.79999 0
    endloop
  endfacet
  facet normal -0.686012 0.72759 0
    outer loop
      vertex -2.7 5.79999 0
      vertex -6.2 2.5 10
      vertex -2.7 5.79999 10
    endloop
  endfacet
  facet normal -0.686012 0.72759 0
    outer loop
      vertex -6.2 2.5 10
      vertex -2.7 5.79999 0
      vertex -6.2 2.5 0
    endloop
  endfacet
endsolid OpenSCAD_Model
