solid OpenSCAD_Model
  facet normal 1 -0 0
    outer loop
      vertex 20 0 20
      vertex 20 20 0
      vertex 20 20 20
    endloop
  endfacet
  facet normal 1 0 0
    outer loop
      vertex 20 20 0
      vertex 20 0 20
      vertex 20 0 0
    endloop
  endfacet
  facet normal 0 0 1
    outer loop
      vertex 20 20 20
      vertex 15 15 20
      vertex 20 0 20
    endloop
  endfacet
  facet normal 0 0 1
    outer loop
      vertex 20 20 20
      vertex 5 15 20
      vertex 15 15 20
    endloop
  endfacet
  facet normal 0 0 1
    outer loop
      vertex 5 15 20
      vertex 0 20 20
      vertex 5 5 20
    endloop
  endfacet
  facet normal -0 0 1
    outer loop
      vertex 0 20 20
      vertex 5 15 20
      vertex 20 20 20
    endloop
  endfacet
  facet normal -0 0 1
    outer loop
      vertex 15 5 20
      vertex 20 0 20
      vertex 15 15 20
    endloop
  endfacet
  facet normal -0 0 1
    outer loop
      vertex 5 5 20
      vertex 20 0 20
      vertex 15 5 20
    endloop
  endfacet
  facet normal 0 0 1
    outer loop
      vertex 5 5 20
      vertex 0 0 20
      vertex 20 0 20
    endloop
  endfacet
  facet normal 0 0 1
    outer loop
      vertex 0 0 20
      vertex 5 5 20
      vertex 0 20 20
    endloop
  endfacet
  facet normal 0 0 -1
    outer loop
      vertex 20 0 0
      vertex 17.5 2.5 0
      vertex 20 20 0
    endloop
  endfacet
  facet normal 0 0 -1
    outer loop
      vertex 20 0 0
      vertex 2.5 2.5 0
      vertex 17.5 2.5 0
    endloop
  endfacet
  facet normal -0 0 -1
    outer loop
      vertex 2.5 2.5 0
      vertex 0 0 0
      vertex 2.5 17.5 0
    endloop
  endfacet
  facet normal 0 0 -1
    outer loop
      vertex 0 0 0
      vertex 2.5 2.5 0
      vertex 20 0 0
    endloop
  endfacet
  facet normal 0 0 -1
    outer loop
      vertex 17.5 17.5 0
      vertex 20 20 0
      vertex 17.5 2.5 0
    endloop
  endfacet
  facet normal 0 0 -1
    outer loop
      vertex 2.5 17.5 0
      vertex 20 20 0
      vertex 17.5 17.5 0
    endloop
  endfacet
  facet normal 0 0 -1
    outer loop
      vertex 2.5 17.5 0
      vertex 0 20 0
      vertex 20 20 0
    endloop
  endfacet
  facet normal 0 0 -1
    outer loop
      vertex 0 20 0
      vertex 2.5 17.5 0
      vertex 0 0 0
    endloop
  endfacet
  facet normal -1 0 0
    outer loop
      vertex 0 0 0
      vertex 0 20 20
      vertex 0 20 0
    endloop
  endfacet
  facet normal -1 -0 0
    outer loop
      vertex 0 20 20
      vertex 0 0 0
      vertex 0 0 20
    endloop
  endfacet
  facet normal 0 1 -0
    outer loop
      vertex 20 20 0
      vertex 0 20 20
      vertex 20 20 20
    endloop
  endfacet
  facet normal 0 1 0
    outer loop
      vertex 0 20 20
      vertex 20 20 0
      vertex 0 20 0
    endloop
  endfacet
  facet normal 0 -1 0
    outer loop
      vertex 0 0 0
      vertex 20 0 20
      vertex 0 0 20
    endloop
  endfacet
  facet normal 0 -1 -0
    outer loop
      vertex 20 0 20
      vertex 0 0 0
      vertex 20 0 0
    endloop
  endfacet
  facet normal -1 0 0
    outer loop
      vertex 17.5 2.5 0
      vertex 17.5 17.5 15
      vertex 17.5 17.5 0
    endloop
  endfacet
  facet normal -1 -0 0
    outer loop
      vertex 17.5 17.5 15
      vertex 17.5 2.5 0
      vertex 17.5 2.5 15
    endloop
  endfacet
  facet normal 0 0 -1
    outer loop
      vertex 2.5 2.5 15
      vertex 17.5 17.5 15
      vertex 17.5 2.5 15
    endloop
  endfacet
  facet normal -0 0 -1
    outer loop
      vertex 17.5 17.5 15
      vertex 2.5 2.5 15
      vertex 2.5 17.5 15
    endloop
  endfacet
  facet normal 1 -0 0
    outer loop
      vertex 2.5 2.5 15
      vertex 2.5 17.5 0
      vertex 2.5 17.5 15
    endloop
  endfacet
  facet normal 1 0 0
    outer loop
      vertex 2.5 17.5 0
      vertex 2.5 2.5 15
      vertex 2.5 2.5 0
    endloop
  endfacet
  facet normal 0 -1 0
    outer loop
      vertex 2.5 17.5 0
      vertex 17.5 17.5 15
      vertex 2.5 17.5 15
    endloop
  endfacet
  facet normal 0 -1 -0
    outer loop
      vertex 17.5 17.5 15
      vertex 2.5 17.5 0
      vertex 17.5 17.5 0
    endloop
  endfacet
  facet normal 0 1 -0
    outer loop
      vertex 17.5 2.5 0
      vertex 2.5 2.5 15
      vertex 17.5 2.5 15
    endloop
  endfacet
  facet normal 0 1 0
    outer loop
      vertex 2.5 2.5 15
      vertex 17.5 2.5 0
      vertex 2.5 2.5 0
    endloop
  endfacet
  facet normal 1 -0 0
    outer loop
      vertex 15 5 30
      vertex 15 15 20
      vertex 15 15 30
    endloop
  endfacet
  facet normal 1 0 0
    outer loop
      vertex 15 15 20
      vertex 15 5 30
      vertex 15 5 20
    endloop
  endfacet
  facet normal -0 0 1
    outer loop
      vertex 5 15 30
      vertex 15 5 30
      vertex 15 15 30
    endloop
  endfacet
  facet normal 0 0 1
    outer loop
      vertex 15 5 30
      vertex 5 15 30
      vertex 5 5 30
    endloop
  endfacet
  facet normal -1 0 0
    outer loop
      vertex 5 5 20
      vertex 5 15 30
      vertex 5 15 20
    endloop
  endfacet
  facet normal -1 -0 0
    outer loop
      vertex 5 15 30
      vertex 5 5 20
      vertex 5 5 30
    endloop
  endfacet
  facet normal 0 1 -0
    outer loop
      vertex 15 15 20
      vertex 5 15 30
      vertex 15 15 30
    endloop
  endfacet
  facet normal 0 1 0
    outer loop
      vertex 5 15 30
      vertex 15 15 20
      vertex 5 15 20
    endloop
  endfacet
  facet normal 0 -1 0
    outer loop
      vertex 5 5 20
      vertex 15 5 30
      vertex 5 5 30
    endloop
  endfacet
  facet normal 0 -1 -0
    outer loop
      vertex 15 5 30
      vertex 5 5 20
      vertex 15 5 20
    endloop
  endfacet
endsolid OpenSCAD_Model
